<?xml version="1.0" standalone="no"?>
<!DOCTYPE svg PUBLIC "-//W3C//DTD SVG 1.1//EN" "http://www.w3.org/Graphics/SVG/1.1/DTD/svg11.dtd" >
<svg xmlns="http://www.w3.org/2000/svg">
<metadata></metadata>
<defs>
<font id="blueplatespecialswregular" horiz-adv-x="643" >
<font-face units-per-em="2048" ascent="1638" descent="-410" />
<missing-glyph horiz-adv-x="409" />
<glyph horiz-adv-x="2048" />
<glyph horiz-adv-x="2048" />
<glyph unicode="&#xd;" horiz-adv-x="409" />
<glyph unicode=" "  horiz-adv-x="409" />
<glyph unicode="&#x09;" horiz-adv-x="409" />
<glyph unicode="&#xa0;" horiz-adv-x="409" />
<glyph unicode="!" horiz-adv-x="309" d="M270 393h-233v1166h233v-1166zM295 129q0 -57 -41 -99t-98 -42t-99.5 42t-42.5 99t41 98t101 41q57 0 98 -41t41 -98z" />
<glyph unicode="&#x22;" horiz-adv-x="714" d="M680 1485q0 -53 -42 -170t-42 -211h-139q0 96 -42 211t-42 170q0 63 45 108t108 45t108.5 -45t45.5 -108zM352 1485q0 -53 -42 -170t-42 -211h-139q0 96 -42 211t-42 170q0 63 45 108t109 45q63 0 108 -45t45 -108z" />
<glyph unicode="#" horiz-adv-x="1148" d="M1098 1237l-51 -236h-177l-26 -116h176l-51 -234h-176l-66 -309h-235l67 309h-98l-68 -309h-233l67 309h-174l51 234h175l26 116h-176l51 236h176l52 233h233l-51 -233h98l51 233h234l-51 -233h176zM637 1001h-98l-27 -116h98z" />
<glyph unicode="$" horiz-adv-x="968" d="M926 487q0 -143 -95 -256q-90 -104 -229 -145v-143h-233v137q-223 47 -324 264v180h234v-125q33 -51 90 -73v385q-141 41 -230 139q-94 109 -94 250t92 247.5t232 141.5v88h233v-88q199 -53 291 -252v-172h-234v117q-20 31 -57 55v-350q139 -39 229 -146q95 -113 95 -254 zM369 958v281q-90 -51 -90 -139q0 -93 90 -142zM692 487q0 92 -90 150v-297q90 53 90 147z" />
<glyph unicode="%" horiz-adv-x="1865" d="M1780 442q0 -162 -97 -284q-104 -131 -262 -131t-262 131q-98 123 -98 284q0 160 98 283q104 133 262 133t262 -133q97 -123 97 -283zM1477 1446l-971 -1522l-197 127l969 1520zM803 1130q0 -162 -96 -284q-104 -131 -263 -131q-158 0 -262 131q-98 123 -98 284 q0 160 98 283q104 133 262 133t263 -133q96 -123 96 -283zM1546 442q0 63 -30 117q-35 66 -95 66q-59 0 -94 -66q-31 -53 -31 -117q0 -63 31 -116q35 -66 94 -66t95 66q30 53 30 116zM569 1130q0 63 -30 117q-35 63 -95 64q-59 0 -94 -64q-31 -53 -31 -117q0 -63 31 -116 q35 -66 94 -66t95 66q30 53 30 116z" />
<glyph unicode="&#x26;" horiz-adv-x="1302" d="M1245 0h-629q-221 0 -389 154.5t-168 373.5q0 141 76 263q70 115 191 186q-72 94 -72 213q0 152 112.5 259t266.5 107h338v-331h-234v98h-104q-57 0 -101.5 -38t-44.5 -95t44 -95t102 -38h104v104h234v-104h84v-234h-84v-590h274v-233zM737 233v590h-121q-127 0 -223 -82 q-100 -88 -100 -213t98 -210t225 -85h121z" />
<glyph unicode="'" horiz-adv-x="368" d="M352 1485q0 -53 -42 -170t-42 -211h-139q0 96 -42 211t-42 170q0 63 45 108t109 45q63 0 108 -45t45 -108z" />
<glyph unicode="(" horiz-adv-x="450" d="M430 -238h-92q-188 0 -268 381q-49 238 -50 557q0 317 50 555q80 383 268 383h92v-233h-92q-29 0 -68 -381q-33 -324 0 -649q39 -379 68 -379h92v-234z" />
<glyph unicode=")" horiz-adv-x="450" d="M16 -238h93q188 0 268 381q49 238 49 557q0 317 -49 555q-80 383 -268 383h-93v-233h93q29 0 67 -381q33 -324 0 -649q-39 -379 -67 -379h-93v-234z" />
<glyph unicode="*" horiz-adv-x="602" d="M492 1094q-23 0 -41 10q-25 14 -54 47q-39 45 -53 57q4 -20 25 -75q14 -41 14 -70q0 -33 -23.5 -57.5t-58.5 -24.5t-59.5 24.5t-24.5 57.5q0 31 14 72q20 53 25 73q-31 -41 -104 -106q-18 -10 -41 -10q-33 0 -57.5 23.5t-24.5 58.5q0 47 41 71q23 14 65 21q57 12 78 18 q-51 6 -145 39q-39 23 -39 70q0 35 23.5 59.5t58.5 24.5q23 0 44 -12.5t50 -45.5q37 -47 51 -59q-4 20 -25 76q-14 41 -14 69q0 33 24.5 57.5t59.5 24.5t58.5 -23.5t23.5 -58.5q0 -29 -14 -69q-20 -55 -25 -76q33 41 107 106q18 10 41 11q33 0 57 -23.5t24 -58.5 q0 -47 -41 -72q-25 -14 -67 -23q-55 -10 -76 -16q49 -6 143 -39q41 -25 41 -71q0 -35 -23 -57.5t-58 -22.5z" />
<glyph unicode="+" horiz-adv-x="1275" d="M1217 549h-461v-461h-236v461h-463v235h463v463h236v-463h461v-235z" />
<glyph unicode="," horiz-adv-x="321" d="M279 199q29 -45 28 -105q0 -90 -58.5 -179t-131.5 -128l-54 104q53 29 87 97q-57 4 -96.5 44t-39.5 97t41 98t101 41q78 1 123 -69z" />
<glyph unicode="-" horiz-adv-x="462" d="M406 539h-351v233h351v-233z" />
<glyph unicode="." horiz-adv-x="309" d="M295 129q0 -57 -41 -99t-98 -42t-99.5 42t-42.5 99t41 98t101 41q57 0 98 -41t41 -98z" />
<glyph unicode="/" horiz-adv-x="1056" d="M1010 1552l-744 -1888l-219 84l746 1890z" />
<glyph unicode="0" horiz-adv-x="1282" d="M1225 776q0 -287 -144 -520q-168 -270 -440 -270t-440 270q-143 233 -144 520q0 313 158 543q170 248 426 248q272 0 440 -271q144 -233 144 -520zM989 776q0 186 -80 352q-98 205 -268 205t-268 -205q-80 -166 -80 -352t80 -350q98 -207 268 -207t268 207q80 164 80 350 z" />
<glyph unicode="1" horiz-adv-x="485" d="M424 0h-342v233h106v1090h-106v233h342v-1556z" />
<glyph unicode="2" horiz-adv-x="1048" d="M1001 0h-954l629 967q37 57 37 129q0 90 -59.5 158.5t-147.5 68.5t-147.5 -68.5t-59.5 -158.5h-233q0 186 128 323t312 137t312 -137t128 -323q0 -143 -74 -256l-395 -607h291v160h233v-393z" />
<glyph unicode="3" horiz-adv-x="1054" d="M1008 594q0 -248 -184.5 -421t-434.5 -173h-342v393h236v-160h106q154 0 268.5 104.5t114.5 256.5t-114.5 257t-268.5 105h-199l205 367l-112 -2v-96h-236v334h746l-220 -396q188 -57 311.5 -214.5t123.5 -354.5z" />
<glyph unicode="4" horiz-adv-x="1044" d="M995 393h-116v-393h-398v233h164v160h-598v475q0 254 158 463q174 227 422 228h252v-932h116v-234zM645 627v696q-164 0 -270 -152q-94 -135 -94 -303v-241h364z" />
<glyph unicode="5" horiz-adv-x="1050" d="M1004 594q0 -248 -184.5 -421t-434.5 -173h-338v393h236v-160h102q154 0 268.5 104.5t114.5 256.5t-114.5 256t-268.5 104h-285v605h727v-334h-233v96h-258v-133h49q250 0 432 -170q187 -176 187 -424z" />
<glyph unicode="6" horiz-adv-x="1126" d="M1075 506q-10 -203 -149 -356q-145 -162 -346 -162q-272 0 -420 272q-121 227 -109 518q12 283 160 512q174 268 440 269h324v-394h-236v158h-88q-166 0 -272 -207q-84 -164 -92 -348t51 -342q78 -205 242 -205q109 0 186 96q72 90 76 199t-54 193q-61 94 -165 94 q-82 0 -154 -68l-160 170q137 131 314 131q205 0 338 -166q124 -157 114 -364z" />
<glyph unicode="7" horiz-adv-x="1112" d="M1061 1559l-539 -1326h117v-233h-465l539 1323h-428v-158h-234v394h1010z" />
<glyph unicode="8" horiz-adv-x="1216" d="M1161 590q0 -238 -155 -416q-162 -184 -398 -184t-397 184q-156 178 -156 416q0 152 72 290t192 220q-51 74 -51 162q0 131 107 221q100 86 233 86q135 0 238.5 -88t103.5 -219q0 -84 -51 -162q121 -82 191.5 -219t70.5 -291zM715 1262q0 35 -35 54t-72 19t-67 -18 q-39 -20 -39 -55q0 -33 39 -54q33 -18 67 -18q37 0 72 19.5t35 52.5zM928 590q0 141 -88 250q-94 117 -232 116q-137 0 -231 -116q-88 -109 -88 -250t88 -250q94 -117 231 -117t232 117q88 109 88 250z" />
<glyph unicode="9" horiz-adv-x="1126" d="M1075 780q-12 -285 -160 -512q-174 -268 -440 -268h-264v393h235v-160h29q166 0 273 207q84 164 92 348q8 186 -52 342q-78 205 -241 205q-109 0 -182.5 -93t-77.5 -202q-4 -106 51 -190q61 -94 166 -94q76 0 139 53l150 -178q-127 -111 -289 -111q-205 0 -336 168 q-125 156 -117 363q8 203 148 356q147 162 348 162q272 0 420 -273q120 -227 108 -516z" />
<glyph unicode=":" horiz-adv-x="309" d="M295 600q0 -57 -41 -99t-98 -42t-99.5 42t-42.5 99t41 98t101 41q57 0 98 -41t41 -98zM295 129q0 -57 -41 -99t-98 -42t-99.5 42t-42.5 99t41 98t101 41q57 0 98 -41t41 -98z" />
<glyph unicode=";" horiz-adv-x="321" d="M295 600q0 -57 -41 -99t-98 -42t-99.5 42t-42.5 99t41 98t101 41q57 0 98 -41t41 -98zM279 199q29 -45 28 -105q0 -90 -58.5 -179t-131.5 -128l-54 104q53 29 87 97q-57 4 -96.5 44t-39.5 97t41 98t101 41q78 1 123 -69z" />
<glyph unicode="&#x3c;" horiz-adv-x="1269" d="M1210 428l-88 -217l-1065 446v205l1065 447l88 -215l-792 -334z" />
<glyph unicode="=" horiz-adv-x="1275" d="M1217 774h-1160v236h1160v-236zM1217 315h-1160v234h1160v-234z" />
<glyph unicode="&#x3e;" horiz-adv-x="1269" d="M55 428l88 -217l1065 446v205l-1065 447l-88 -215l793 -334z" />
<glyph unicode="?" horiz-adv-x="913" d="M862 1161q0 -246 -174 -385l-121 -96q-57 -45 -57 -98v-189h-234v189q0 158 146 278l119 98q86 72 86 203q0 78 -53.5 131.5t-131.5 53.5q-111 0 -161 -101v-110h-236v161q129 285 397 285q174 0 297 -123t123 -297zM535 129q0 -59 -41 -100t-99 -41q-57 0 -99 42t-42 99 t41 98t100 41t99.5 -40t40.5 -99z" />
<glyph unicode="@" horiz-adv-x="1779" d="M1667 774q0 -293 -301 -457h-500q-129 0 -225 76q-104 82 -104 207q0 96 63 166q45 49 150 104l168 91q-35 29 -74 28h-117v225h117q166 0 276 -145q100 -133 101 -303v-225h77q145 74 146 233q0 227 -158 388t-385 161q-229 0 -395 -161t-166 -388t166 -388t395 -161 h518v-225h-518q-319 0 -552.5 227.5t-233.5 546.5t233.5 546.5t552.5 227.5t542.5 -226t223.5 -548zM995 541l-2 204l-141 -73q-27 -14 -53 -27q-37 -23 -37 -45q0 -29 41 -45q31 -14 63 -14h129z" />
<glyph unicode="A" horiz-adv-x="1247" d="M1204 0h-377v385h-417v-385h-349v233h113v152h-117v233h117v340q0 256 184.5 439.5t438.5 183.5q88 0 264 -53v-1295h143v-233zM827 618v728q-4 0 -14 2h-16q-158 0 -272.5 -115t-114.5 -275v-340h417z" />
<glyph unicode="B" horiz-adv-x="1241" d="M1184 410q0 -184 -156 -301q-141 -109 -332 -109h-639v233h121v1090h-121v233h475q156 0 271 -86q125 -92 125 -243q0 -76 -56 -160q-35 -55 -100 -121q-55 -53 -55 -57t4 -6q90 -45 266 -138q90 -47 143.5 -140t53.5 -195zM950 410q0 86 -71 127q-90 45 -267 139 q-127 68 -127 213q0 96 97.5 198.5t97.5 155.5q0 80 -148 80h-118v-1090h282q92 0 166 41q88 52 88 136z" />
<glyph unicode="C" horiz-adv-x="1077" d="M1028 86q-182 -98 -344 -98q-285 0 -469 258q-166 231 -166 526t166 526q184 258 469 258h289v-417h-234v184h-55q-186 0 -301 -190q-100 -164 -100 -361t100 -360q115 -190 301 -191q51 0 111 17v315h233v-467z" />
<glyph unicode="D" horiz-adv-x="1173" d="M1120 778q0 -309 -205 -538q-215 -240 -520 -240h-342v233h117v1096h-117v227h344q305 0 518 -237q205 -230 205 -541zM887 778q0 211 -135 371q-141 166 -349 180v-1096q209 4 351 175q133 159 133 370z" />
<glyph unicode="E" horiz-adv-x="1042" d="M995 0h-948v233h117v207h-111v236h111v647h-117v233h948v-401h-235v168h-363v-647h68v104h235v-444h-235v104h-68v-207h363v201h235v-434z" />
<glyph unicode="F" horiz-adv-x="1042" d="M995 1155h-235v168h-363v-661h168v106h236v-446h-236v106h-168v-195h131v-233h-481v233h117v195h-101v234h101v661h-117v233h948v-401z" />
<glyph unicode="G" horiz-adv-x="1087" d="M1030 -2h-352q-285 0 -469 260q-166 233 -166 528q0 293 168 517q186 246 473 245q152 0 346 -106v-285h-235v139q-47 16 -111 17q-188 0 -305 -178q-102 -156 -103 -349q0 -197 101 -362q115 -193 301 -193h119v220h-64v-76h-237v307h534v-684z" />
<glyph unicode="H" horiz-adv-x="1357" d="M1296 0h-352v662h-524v-662h-359v233h125v1090h-125v233h359v-661h524v661h352v-233h-116v-1090h116v-233z" />
<glyph unicode="I" horiz-adv-x="530" d="M506 0h-481v233h114v1323h359v-233h-125v-1090h133v-233z" />
<glyph unicode="J" horiz-adv-x="778" d="M743 483q0 -199 -142 -341t-341 -142h-225v424h235v-191q98 4 169 77t71 173v840h-305v233h538v-1073z" />
<glyph unicode="K" horiz-adv-x="1421" d="M1370 0h-342v117q0 199 -143.5 344t-339.5 145h-142v-606h-352v233h117v1090h-117v236h352v-701q190 49 312.5 196.5t122.5 344.5v160h354v-236h-123q-29 -307 -287 -524q182 -66 310.5 -218.5t160.5 -347.5h117v-233z" />
<glyph unicode="L" horiz-adv-x="1071" d="M1022 0h-973v233h119v1090h-119v233h473v-233h-121v-1090h387v259h234v-492z" />
<glyph unicode="M" horiz-adv-x="1984" d="M1931 0h-360v1044q0 115 -83 197t-198 82q-131 0 -215 -100q25 -70 25 -150v-840h117v-233h-351v1073q0 102 -74.5 176t-177.5 74q-121 0 -196 -96v-994h121v-233h-480v233h125v1090h-123v233h357v-40q94 41 196 40q195 0 332 -133q150 133 344 133q211 0 362.5 -150.5 t151.5 -361.5v-811h127v-233z" />
<glyph unicode="N" horiz-adv-x="1288" d="M1231 0h-352v1069q0 104 -76 179t-178 75q-135 0 -213 -115v-975h114v-233h-467v233h119v1090h-117v233h351v-49q98 49 213 49q201 0 344 -143t143 -344v-836h119v-233z" />
<glyph unicode="O" horiz-adv-x="1282" d="M1225 778q0 -289 -144 -526q-168 -276 -440 -277q-272 0 -440 277q-143 238 -144 526q0 289 144 527q168 276 440 276t440 -276q144 -238 144 -527zM989 778q0 188 -80 359q-100 211 -268 211t-268 -211q-80 -170 -80 -359q0 -186 80 -356q100 -211 268 -211t268 211 q80 170 80 356z" />
<glyph unicode="P" horiz-adv-x="1148" d="M1098 989q0 -283 -221 -434q-184 -129 -455 -127v-195h129v-233h-481v233h118v195h-73v234h73v661h-120v233h364q266 0 451 -129q215 -153 215 -438zM864 989q0 170 -153 260q-123 74 -289 74v-661q166 0 289 69q153 88 153 258z" />
<glyph unicode="Q" horiz-adv-x="1298" d="M1239 -35q-182 -6 -315 117q-123 -94 -283 -94q-270 0 -438 270q-143 233 -144 520q0 287 144 520q168 270 438 271q272 0 440 -271q143 -233 144 -520q0 -293 -146 -522q68 -63 160 -57v-234zM991 778q0 186 -80 352q-100 205 -270 205t-268 -205q-80 -166 -80 -352 q0 -168 69 -325q84 -195 228 -226v164q70 25 145 25q80 0 154 -29q102 176 102 391z" />
<glyph unicode="R" horiz-adv-x="1462" d="M1397 0h-350v242q0 63 -31 123q-33 68 -88 88l-295 114q-59 23 -96 78t-37 119q0 41 16 78q20 47 107 110q70 51 94 80q43 49 43 111q0 76 -70 131q-63 49 -141 49h-127v-1090h121v-233h-477v233h122v1090h-122v236h483q176 0 311 -121t135 -295q0 -211 -229 -375 l248 -98q125 -49 198 -176q68 -119 68 -261h117v-233z" />
<glyph unicode="S" horiz-adv-x="1048" d="M1001 453q0 -195 -148 -324t-343 -129q-311 0 -463 295v199h236v-144q72 -117 227 -117q98 0 174 60q84 63 84 160q0 72 -49 128t-121 76l-223 62q-141 39 -234.5 154.5t-93.5 261.5q0 184 146 313q139 121 327 121q293 0 447 -283v-192h-234v135q-70 106 -213 106 q-90 0 -162 -53q-76 -59 -75 -147q0 -68 45 -120t110 -71l224 -63q147 -41 243 -159.5t96 -268.5z" />
<glyph unicode="T" horiz-adv-x="1130" d="M1079 1096h-233v227h-164v-1090h139v-233h-512v233h140v1090h-164v-227h-234v460h1028v-460z" />
<glyph unicode="U" horiz-adv-x="1343" d="M1298 1323h-112v-840q0 -211 -150.5 -362.5t-361.5 -151.5t-362.5 151.5t-151.5 362.5v840h-115v233h348v-1073q0 -115 83 -196.5t198 -81.5t196.5 83t81.5 195v1073h346v-233z" />
<glyph unicode="V" horiz-adv-x="1421" d="M1386 1323h-118l-443 -1331h-223l-440 1331h-121v233h289l385 -1157l383 1157h288v-233z" />
<glyph unicode="W" horiz-adv-x="1949" d="M1905 1323h-119v-883q0 -190 -136.5 -327.5t-328.5 -137.5q-205 0 -346 158q-141 -158 -348 -158q-190 0 -327.5 137.5t-137.5 327.5v883h-121v233h354v-1116q0 -94 68.5 -161.5t163.5 -67.5q94 0 162.5 67.5t68.5 161.5v883h-133v233h496v-233h-129v-883 q0 -94 67.5 -161.5t161.5 -67.5t162.5 67.5t68.5 161.5v1116h353v-233z" />
<glyph unicode="X" horiz-adv-x="1447" d="M1401 0h-357v303q0 166 -122 291q-66 68 -201 149q-135 -82 -201 -149q-123 -125 -123 -291v-303h-356v233h123v70q0 266 190 457q53 53 148 121q-84 57 -133 108q-137 139 -138 330v4h-131v233h367v-237q0 -96 67.5 -164t186.5 -139q119 72 186.5 139.5t67.5 163.5v237 h366v-233h-133v-4q0 -193 -135 -330q-49 -51 -133 -108q94 -68 147 -121q190 -190 191 -457v-70h123v-233z" />
<glyph unicode="Y" horiz-adv-x="1331" d="M1290 1323h-119v-53q0 -205 -122 -365q-23 -25 -56 -65l-270 -252q-49 -45 -49 -123v-232h178v-233h-412v465q0 119 64 223q-57 51 -166 156q-176 180 -176 426v53h-119v233h352v-286q0 -160 109 -262q55 -51 164 -152l161 152q109 102 109 262v286h352v-233z" />
<glyph unicode="Z" horiz-adv-x="1159" d="M1106 0h-1053v303q0 266 189 457q82 84 297 213q96 59 135 84q74 51 123 98q68 66 67 164v4h-510v-162h-235v395h979v-237q0 -195 -135 -330q-92 -92 -304 -217q-182 -109 -251 -178q-121 -121 -121 -291v-70h585v168h234v-401z" />
<glyph unicode="[" horiz-adv-x="372" d="M354 -244h-338v1882h338v-233h-102v-1415h102v-234z" />
<glyph unicode="\" horiz-adv-x="1056" d="M47 1552l744 -1888l219 84l-746 1890z" />
<glyph unicode="]" horiz-adv-x="372" d="M14 -244h338v1882h-338v-233h103v-1415h-103v-234z" />
<glyph unicode="^" horiz-adv-x="1193" d="M1141 719l-205 -111l-338 617l-338 -617l-205 111l449 821h186z" />
<glyph unicode="_" horiz-adv-x="1024" d="M1026 -172h-1026v152h1026v-152z" />
<glyph unicode="`" d="M532 1317q-53 -70 -81 -105q-86 45 -263 131q-20 8 -59 33q-53 41 -53 109q0 45 28 82q41 53 107 53q47 0 84 -31q23 -16 47 -49q20 -24 190 -223z" />
<glyph unicode="a" horiz-adv-x="864" d="M831 0h-460q-139 0 -238.5 98.5t-99.5 237.5q0 184 209 319l252 164q-25 127 -113 127v-98h-234v334h242q154 0 254 -138q92 -127 92 -284v-527h96v-233zM500 233v312l-131 -86q-57 -37 -70 -49q-31 -31 -31 -74q0 -45 30 -74t73 -29h129z" />
<glyph unicode="b" horiz-adv-x="841" d="M690 186q-129 -190 -319 -190h-332v233h94v1094h-94v233h330v-374q195 0 321 -195q115 -174 115 -403q0 -228 -115 -398zM498 315q74 111 73 267q0 162 -75 276q-57 88 -127 88v-717q72 0 129 86z" />
<glyph unicode="c" horiz-adv-x="774" d="M739 80q-47 -31 -153 -78q-51 -14 -101 -14q-203 0 -333 190q-117 170 -117 408q0 236 117 405q131 190 327 191h226v-332h-236v98q-68 -6 -123 -88q-78 -113 -78 -276q0 -162 78 -275q68 -100 158 -86v201h235v-344z" />
<glyph unicode="d" horiz-adv-x="847" d="M809 -4h-338q-190 0 -319 190q-113 168 -113 398q0 229 113 403q127 195 323 195v374h334v-233h-100v-1094h100v-233zM475 229v717q-70 0 -127 -88q-76 -115 -76 -274q0 -158 74 -269q57 -86 129 -86z" />
<glyph unicode="e" horiz-adv-x="907" d="M877 918q0 -184 -128 -312.5t-311 -128.5h-51q20 -92 72 -160q63 -84 145 -84v127h234v-360h-234q-180 0 -311 154q-115 133 -146 323h-114v236h114q31 188 146 323q131 154 311 154q113 0 193 -79.5t80 -192.5zM643 918q0 39 -39 38q-82 0 -145 -84q-51 -68 -72 -159h51 q88 0 146.5 58.5t58.5 146.5z" />
<glyph unicode="f" horiz-adv-x="571" d="M545 948h-195v-715h88v-233h-411v233h90v715h-90v234h94q20 166 108 264q100 111 269 110v-233q-123 0 -142 -141h189v-234z" />
<glyph unicode="g" horiz-adv-x="886" d="M844 950h-88v-708q0 -229 -123 -414q-139 -207 -361 -207h-108v234h108q121 0 195 149q-193 0 -320 193q-113 172 -112 399q0 229 112 397q127 188 320 189h377v-232zM522 238v712h-55q-68 0 -125 -86q-74 -109 -74 -264q0 -160 76 -274q57 -88 123 -88h55z" />
<glyph unicode="h" horiz-adv-x="915" d="M874 0h-321v702q0 86 -47 156q-53 78 -133 88v-946h-332v233h96v715h-92v234h92v141h-96v233h332v-374q178 -10 299 -156q115 -141 114 -324v-469h88v-233z" />
<glyph unicode="i" horiz-adv-x="413" d="M369 1440q0 -51 -37 -89t-90 -38q-51 0 -89 38t-38 89q0 53 37.5 90t89.5 37q53 0 90 -37t37 -90zM377 0h-330v233h96v715h-96v234h330v-1182z" />
<glyph unicode="j" horiz-adv-x="419" d="M340 1440q0 -51 -37 -89t-90 -38t-91 36.5t-38 90.5q0 53 38 90t91 37t90 -37t37 -90zM375 70q0 -123 -84 -214.5t-205 -91.5h-51v234h51q53 0 53 72v878h-98v234h334v-1112z" />
<glyph unicode="k" horiz-adv-x="1007" d="M963 0h-330v115q0 135 -60 258q-74 150 -196 162v-535h-332v233h96v1090h-96v233h332v-776q76 37 122 107.5t46 154.5v140h317v-232h-92q-27 -160 -149 -278q197 -152 239 -443h103v-229z" />
<glyph unicode="l" horiz-adv-x="403" d="M365 0h-330v233h96v1090h-96v233h330v-1556z" />
<glyph unicode="m" horiz-adv-x="1200" d="M1161 0h-327v942q-51 -12 -82 -60t-31 -106v-543h67v-233h-303v776q-2 55 -31.5 104.5t-80.5 63.5v-944h-328v233h94v715h-94v234h295q154 0 264 -115q109 115 262 115h295v-234h-94v-715h94v-233z" />
<glyph unicode="n" horiz-adv-x="903" d="M862 0h-327v723q0 78 -47.5 145.5t-120.5 77.5v-946h-326v233h90v715h-90v234h305q180 0 301 -138.5t121 -320.5v-490h94v-233z" />
<glyph unicode="o" horiz-adv-x="1015" d="M981 586q0 -227 -119 -404q-137 -203 -352 -202q-217 0 -352 202q-121 178 -121 404q0 225 121 403q137 201 352 201t352 -201q119 -178 119 -403zM748 586q0 123 -56 235q-70 135 -182 135q-115 0 -184 -135q-55 -113 -56 -235q0 -125 56 -236q70 -137 184 -137 q113 0 182 137q56 111 56 236z" />
<glyph unicode="p" horiz-adv-x="839" d="M688 197q-129 -195 -319 -195h-4v-373h-326v232h92v1087h-92v234h330q193 0 319 -189q113 -168 113 -397q0 -227 -113 -399zM494 862q-57 86 -125 86v-712q66 0 123 88q76 115 75 274q1 155 -73 264z" />
<glyph unicode="q" horiz-adv-x="1026" d="M979 -410h-57q-154 0 -299 162q-88 98 -187 98h-88v187q-141 68 -225 235q-76 154 -76 326q0 223 119 399q133 199 346 199q215 0 348 -199q119 -176 119 -399q0 -180 -84 -338q-92 -176 -244 -233q74 -45 144 -121q76 -84 127 -84h57v-232zM748 598q0 123 -56 231 q-68 135 -180 136q-113 0 -178 -136q-55 -109 -55 -231q0 -123 55 -231q66 -135 178 -136q113 0 180 136q56 108 56 231z" />
<glyph unicode="r" horiz-adv-x="716" d="M682 948h-37q-129 0 -209 -153q-63 -123 -63 -265v-532h-326v233h92v719h-92v232h326v-99q123 98 272 99h37v-234z" />
<glyph unicode="s" horiz-adv-x="759" d="M725 348q0 -147 -103.5 -253.5t-250.5 -106.5q-117 0 -206 67.5t-130 177.5v144h233v-96q39 -59 103 -60q49 0 85 38t36 89q0 94 -80 119l-142 45q-104 33 -169.5 126t-65.5 204q0 141 100.5 244.5t241.5 103.5q215 0 325 -234v-143h-233v92q-35 51 -92 51 q-45 0 -77 -33.5t-32 -80.5q0 -82 72 -107l141 -47q109 -37 176.5 -131t67.5 -209z" />
<glyph unicode="t" horiz-adv-x="481" d="M449 0h-109q-133 0 -213 94q-76 88 -76 217v1153h234v-282h153v-234h-153v-637q0 -25 12 -47q16 -31 43 -31h109v-233z" />
<glyph unicode="u" horiz-adv-x="909" d="M868 0h-311q-182 0 -305 150q-117 139 -117 325v473h-94v234h328v-707q0 -84 43 -153q49 -76 127 -86v946h329v-234h-96v-715h96v-233z" />
<glyph unicode="v" horiz-adv-x="1009" d="M963 950h-95l-250 -958h-227l-250 958h-96v232h274l185 -703l184 703h275v-232z" />
<glyph unicode="w" horiz-adv-x="1218" d="M1182 948h-78v-653q0 -123 -89 -213t-212 -90q-102 0 -182 63q-80 -63 -183 -63q-123 0 -212 90t-89 213v653h-98v234h332v-887q0 -29 19.5 -49.5t47.5 -20.5q27 0 46.5 20.5t19.5 49.5v887h289v-234h-56v-653q0 -29 19.5 -49.5t46.5 -20.5q66 0 65 70v887h314v-234z" />
<glyph unicode="x" horiz-adv-x="1007" d="M963 -2h-324v250q0 119 -64 198q-27 35 -71 72q-47 -39 -72 -72q-63 -82 -63 -198v-250h-324v233h90v17q0 197 113 340q35 43 74 80q-127 113 -140 282h-94v232h328v-205q0 -61 33 -105q18 -25 55 -57q37 33 55 57q33 43 33 105v205h330v-232h-97q-12 -170 -139 -282 q39 -37 74 -80q113 -143 112 -340v-17h91v-233z" />
<glyph unicode="y" horiz-adv-x="935" d="M895 59h-119q-45 -184 -158 -303q-129 -135 -303 -135h-137v234h137q145 0 217 204q-170 10 -286 152q-111 133 -111 309v428h-92v234h326v-662q0 -86 51 -153q55 -74 137 -74h8v889h328v-234h-94v-655h96v-234z" />
<glyph unicode="z" horiz-adv-x="921" d="M879 1182l-463 -949h213v123h235v-356h-823l465 948h-184v-117h-234v351h791z" />
<glyph unicode="{" horiz-adv-x="555" d="M530 -238h-98q-113 0 -196.5 79t-83.5 194v510q0 39 -48 39h-79v233h79q47 0 48 39v510q0 115 83.5 193.5t196.5 78.5h98v-233h-98q-47 0 -47 -39v-510q0 -86 -49 -156q49 -70 49 -155v-510q0 -39 47 -39h98v-234z" />
<glyph unicode="|" horiz-adv-x="258" d="M246 -410h-234v2048h234v-2048z" />
<glyph unicode="}" horiz-adv-x="555" d="M23 -238h98q113 0 196.5 79t83.5 194v510q0 39 48 39h79v233h-79q-47 0 -48 39v510q0 115 -84 193.5t-196 78.5h-98v-233h98q47 0 47 -39v-510q0 -86 49 -156q-49 -70 -49 -155v-510q0 -39 -47 -39h-98v-234z" />
<glyph unicode="~" horiz-adv-x="1222" d="M1165 903q0 -182 -151 -280q-88 -57 -191 -58q-66 0 -125 25l-262 106q-53 20 -100 -10.5t-47 -83.5h-234q0 182 152 281q86 55 188 55q68 0 129 -25l262 -106q53 -20 99.5 9.5t46.5 86.5h233z" />
<glyph unicode="&#xa1;" horiz-adv-x="309" d="M37 803h233v-1165h-233v1165zM12 1067q0 57 41 99t99 42q59 0 100 -41t41 -100q0 -57 -41 -98t-100 -41q-57 0 -98.5 41t-41.5 98z" />
<glyph unicode="&#xa2;" horiz-adv-x="917" d="M874 1069h-233v105h-39v-564q4 2 11.5 3t11.5 1v146h233v-309q-156 -68 -256 -74v-377h-233v416q-141 61 -229.5 190t-88.5 285q0 158 88 287t230 190v191h233v-150h272v-340zM369 694v396q-82 -82 -82 -199q0 -115 82 -197z" />
<glyph unicode="&#xa3;" horiz-adv-x="1114" d="M1077 1282l-215 -90q-31 70 -95.5 113t-139.5 43q-102 0 -178 -76t-76 -178v-207h198v-236h-198v-418h325v160h234v-393h-793v651h-96v236h96v207q0 201 144.5 344t343.5 143q145 0 269 -82t181 -217z" />
<glyph unicode="&#xa5;" horiz-adv-x="1456" d="M1415 1323h-145l-164 -297h188v-235h-317l-23 -43h340v-234h-446v-514h-377v233h143v281h-446v234h340l-23 43h-317v235h188l-163 297h-148v233h287l399 -729l399 729h285v-233z" />
<glyph unicode="&#xa8;" d="M592 1350q0 -49 -36 -85t-85 -36t-85 35.5t-36 85.5q0 51 35 85.5t86 34.5q49 0 85 -34.5t36 -85.5zM293 1350q0 -49 -35 -85t-86 -36q-49 0 -85 35.5t-36 85.5q0 51 36 85.5t85 34.5q51 0 86 -34.5t35 -85.5z" />
<glyph unicode="&#xa9;" horiz-adv-x="1759" d="M1679 780q0 -328 -236.5 -563t-563.5 -235q-328 0 -563.5 235.5t-235.5 562.5q0 328 235.5 564.5t563.5 236.5q330 0 565 -235.5t235 -565.5zM1538 780q0 270 -194.5 465t-464.5 195t-464 -194.5t-194 -465.5q0 -270 193.5 -463.5t464.5 -193.5q270 0 464.5 193.5 t194.5 463.5zM1182 322l-41 -19q-100 -45 -219 -45q-211 0 -358.5 155.5t-147.5 366.5t147.5 368t358.5 157h215v-277h-142v135h-73q-154 0 -259.5 -113.5t-105.5 -269.5q0 -154 105.5 -268.5t259.5 -114.5q63 0 120 19v217h140v-311z" />
<glyph unicode="&#xab;" horiz-adv-x="894" d="M854 305l-389 387v166l389 389v-332l-139 -139l139 -141v-330zM424 305l-389 387v166l389 389v-332l-139 -139l139 -141v-330z" />
<glyph unicode="&#xad;" horiz-adv-x="462" d="M406 539h-351v233h351v-233z" />
<glyph unicode="&#xae;" horiz-adv-x="757" d="M723 1243q0 -141 -101.5 -242.5t-242.5 -101.5t-242.5 101.5t-101.5 242.5t101.5 242.5t242.5 101.5t242.5 -101.5t101.5 -242.5zM662 1243q0 117 -83 200t-200 83t-201 -83t-84 -200t84 -201t201 -84t200 84t83 201zM573 1075h-102v31q0 57 -45 90q-35 -14 -78 -14v-45 h17v-62h-119v62h41v45h-31v61h31v139h-43v62h104q66 0 109 -31q49 -37 49 -100q0 -49 -29 -82q41 -37 53 -94h43v-62zM444 1313q0 70 -96 69v-139q96 0 96 70z" />
<glyph unicode="&#xb4;" d="M522 1567q29 -37 29 -82q0 -68 -53 -109q-16 -14 -60 -33l-262 -131q-29 35 -82 105q63 74 191 223q25 33 47 49q37 31 84 31q65 0 106 -53z" />
<glyph unicode="&#xb8;" d="M176 -457q-4 0 -18 2h-21l10 117q12 -2 27 -2q119 0 119 66q0 39 -57 55l-80 22l163 226h150l-94 -125q131 -61 131 -164q0 -104 -119 -158q-90 -39 -211 -39z" />
<glyph unicode="&#xbb;" horiz-adv-x="894" d="M35 305l389 387v166l-389 389v-332l139 -139l-139 -141v-330zM465 305l389 387v166l-389 389v-332l139 -139l-139 -141v-330z" />
<glyph unicode="&#xbf;" horiz-adv-x="913" d="M43 39q0 246 174 385l121 96q57 45 57 98v189h234v-189q0 -158 -146 -278l-118 -98q-86 -72 -86 -203q0 -78 53 -131t131 -53q113 0 162 100v111h235v-162q-129 -285 -397 -285q-174 0 -297 123t-123 297zM371 1071q0 59 41 100t98 41q59 0 100 -41t41 -100 q0 -57 -41 -98t-100 -41q-57 0 -98 41t-41 98z" />
<glyph unicode="&#xc1;" horiz-adv-x="1247" d="M1204 0h-377v385h-417v-385h-349v233h113v152h-117v233h117v340q0 256 184.5 439.5t438.5 183.5q88 0 264 -53v-1295h143v-233zM827 618v728q-4 0 -14 2h-16q-158 0 -272.5 -115t-114.5 -275v-340h417zM1083 1964q29 -37 29 -82q0 -68 -53 -109q-16 -14 -60 -33 l-262 -131q-29 35 -82 105q63 74 191 223q25 33 47 49q37 31 84 31q65 0 106 -53z" />
<glyph unicode="&#xc9;" horiz-adv-x="1042" d="M995 0h-948v233h117v207h-111v236h111v647h-117v233h948v-401h-235v168h-363v-647h68v104h235v-444h-235v104h-68v-207h363v201h235v-434zM874 1948q29 -37 29 -82q0 -68 -53 -109q-16 -14 -60 -33l-262 -131q-29 35 -82 105q63 74 191 223q25 33 47 49q37 31 84 31 q65 0 106 -53z" />
<glyph unicode="&#xcd;" horiz-adv-x="530" d="M506 0h-481v233h114v1323h359v-233h-125v-1090h133v-233zM628 1944q29 -37 29 -82q0 -68 -53 -109q-16 -14 -60 -33l-262 -131q-29 35 -82 105q63 74 191 223q25 33 47 49q37 31 84 31q65 0 106 -53z" />
<glyph unicode="&#xd1;" horiz-adv-x="1288" d="M1231 0h-352v1069q0 104 -76 179t-178 75q-135 0 -213 -115v-975h114v-233h-467v233h119v1090h-117v233h351v-49q98 49 213 49q201 0 344 -143t143 -344v-836h119v-233zM880 1826l-16 -71q-14 -61 -64.5 -101.5t-113.5 -40.5q-20 0 -41 5l-205 47q-16 0 -21.5 -20.5 t-9.5 -39.5l-114 25q12 51 18 78q14 61 64.5 100t111.5 39q20 0 41 -4l207 -47q18 0 29 57z" />
<glyph unicode="&#xd3;" horiz-adv-x="1282" d="M1225 778q0 -289 -144 -526q-168 -276 -440 -277q-272 0 -440 277q-143 238 -144 526q0 289 144 527q168 276 440 276t440 -276q144 -238 144 -527zM989 778q0 188 -80 359q-100 211 -268 211t-268 -211q-80 -170 -80 -359q0 -186 80 -356q100 -211 268 -211t268 211 q80 170 80 356zM960 1968q29 -37 29 -82q0 -68 -53 -109q-16 -14 -60 -33l-262 -131q-29 35 -82 105q63 74 191 223q25 33 47 49q37 31 84 31q65 0 106 -53z" />
<glyph unicode="&#xda;" horiz-adv-x="1343" d="M1298 1323h-112v-840q0 -211 -150.5 -362.5t-361.5 -151.5t-362.5 151.5t-151.5 362.5v840h-115v233h348v-1073q0 -115 83 -196.5t198 -81.5t196.5 83t81.5 195v1073h346v-233zM1046 1911q29 -37 29 -82q0 -68 -53 -109q-16 -14 -60 -33l-262 -131q-29 35 -82 105 q63 74 191 223q25 33 47 49q37 31 84 31q65 0 106 -53z" />
<glyph unicode="&#xdc;" horiz-adv-x="1343" d="M1298 1323h-112v-840q0 -211 -150.5 -362.5t-361.5 -151.5t-362.5 151.5t-151.5 362.5v840h-115v233h348v-1073q0 -115 83 -196.5t198 -81.5t196.5 83t81.5 195v1073h346v-233zM940 1682q0 -49 -36 -85t-85 -36t-85 35.5t-36 85.5q0 51 35 85.5t86 34.5q49 0 85 -34.5 t36 -85.5zM641 1682q0 -49 -35 -85t-86 -36q-49 0 -85 35.5t-36 85.5q0 51 36 85.5t85 34.5q51 0 86 -34.5t35 -85.5z" />
<glyph unicode="&#xe1;" horiz-adv-x="864" d="M831 0h-460q-139 0 -238.5 98.5t-99.5 237.5q0 184 209 319l252 164q-25 127 -113 127v-98h-234v334h242q154 0 254 -138q92 -127 92 -284v-527h96v-233zM500 233v312l-131 -86q-57 -37 -70 -49q-31 -31 -31 -74q0 -45 30 -74t73 -29h129zM747 1567q29 -37 29 -82 q0 -68 -53 -109q-16 -14 -60 -33l-262 -131q-29 35 -82 105q63 74 191 223q25 33 47 49q37 31 84 31q65 0 106 -53z" />
<glyph unicode="&#xe9;" horiz-adv-x="907" d="M877 918q0 -184 -128 -312.5t-311 -128.5h-51q20 -92 72 -160q63 -84 145 -84v127h234v-360h-234q-180 0 -311 154q-115 133 -146 323h-114v236h114q31 188 146 323q131 154 311 154q113 0 193 -79.5t80 -192.5zM643 918q0 39 -39 38q-82 0 -145 -84q-51 -68 -72 -159h51 q88 0 146.5 58.5t58.5 146.5zM870 1567q29 -37 29 -82q0 -68 -53 -109q-16 -14 -60 -33l-262 -131q-29 35 -82 105q63 74 191 223q25 33 47 49q37 31 84 31q65 0 106 -53z" />
<glyph unicode="&#xed;" horiz-adv-x="413" d="M377 0h-330v233h96v715h-96v234h330v-1182zM522 1567q29 -37 29 -82q0 -68 -53 -109q-16 -14 -60 -33l-262 -131q-29 35 -82 105q63 74 191 223q25 33 47 49q37 31 84 31q65 0 106 -53z" />
<glyph unicode="&#xf1;" horiz-adv-x="903" d="M862 0h-327v723q0 78 -47.5 145.5t-120.5 77.5v-946h-326v233h90v715h-90v234h305q180 0 301 -138.5t121 -320.5v-490h94v-233zM716 1445l-16 -71q-14 -61 -64.5 -101.5t-113.5 -40.5q-20 0 -41 5l-205 47q-16 0 -21.5 -20.5t-9.5 -39.5l-114 25q12 51 18 78 q14 61 64.5 100t111.5 39q20 0 41 -4l207 -47q18 0 29 57z" />
<glyph unicode="&#xf3;" horiz-adv-x="1015" d="M981 586q0 -227 -119 -404q-137 -203 -352 -202q-217 0 -352 202q-121 178 -121 404q0 225 121 403q137 201 352 201t352 -201q119 -178 119 -403zM748 586q0 123 -56 235q-70 135 -182 135q-115 0 -184 -135q-55 -113 -56 -235q0 -125 56 -236q70 -137 184 -137 q113 0 182 137q56 111 56 236zM891 1587q29 -37 29 -82q0 -68 -53 -109q-16 -14 -60 -33l-262 -131q-29 35 -82 105q63 74 191 223q25 33 47 49q37 31 84 31q65 0 106 -53z" />
<glyph unicode="&#xfa;" horiz-adv-x="909" d="M868 0h-311q-182 0 -305 150q-117 139 -117 325v473h-94v234h328v-707q0 -84 43 -153q49 -76 127 -86v946h329v-234h-96v-715h96v-233zM809 1567q29 -37 29 -82q0 -68 -53 -109q-16 -14 -60 -33l-262 -131q-29 35 -82 105q63 74 191 223q25 33 47 49q37 31 84 31 q65 0 106 -53z" />
<glyph unicode="&#xfc;" horiz-adv-x="909" d="M868 0h-311q-182 0 -305 150q-117 139 -117 325v473h-94v234h328v-707q0 -84 43 -153q49 -76 127 -86v946h329v-234h-96v-715h96v-233zM735 1350q0 -49 -36 -85t-85 -36t-85 35.5t-36 85.5q0 51 35 85.5t86 34.5q49 0 85 -34.5t36 -85.5zM436 1350q0 -49 -35 -85t-86 -36 q-49 0 -85 35.5t-36 85.5q0 51 36 85.5t85 34.5q51 0 86 -34.5t35 -85.5z" />
<glyph unicode="&#x131;" horiz-adv-x="413" d="M377 0h-330v233h96v715h-96v234h330v-1182z" />
<glyph unicode="&#x2c6;" horiz-adv-x="720" d="M688 1284l-65 -82l-263 135l-264 -137l-63 86l327 297z" />
<glyph unicode="&#x2da;" horiz-adv-x="817" d="M643 1456q0 -96 -68.5 -165.5t-164.5 -69.5t-166 69.5t-70 165.5t69.5 165t166.5 69q96 0 164.5 -69t68.5 -165zM549 1456q0 57 -41 98t-98 41t-99.5 -41t-42.5 -98t42 -99t100 -42q57 0 98 42t41 99z" />
<glyph unicode="&#x2dc;" d="M614 1425l-16 -71q-14 -61 -64.5 -101.5t-113.5 -40.5q-20 0 -41 5l-205 47q-16 0 -21.5 -20.5t-9.5 -39.5l-114 25q12 51 18 78q14 61 64.5 100t111.5 39q20 0 41 -4l207 -47q18 0 29 57z" />
<glyph unicode="&#x2000;" horiz-adv-x="1010" />
<glyph unicode="&#x2001;" horiz-adv-x="2021" />
<glyph unicode="&#x2002;" horiz-adv-x="1010" />
<glyph unicode="&#x2003;" horiz-adv-x="2021" />
<glyph unicode="&#x2004;" horiz-adv-x="673" />
<glyph unicode="&#x2005;" horiz-adv-x="505" />
<glyph unicode="&#x2006;" horiz-adv-x="336" />
<glyph unicode="&#x2007;" horiz-adv-x="336" />
<glyph unicode="&#x2008;" horiz-adv-x="252" />
<glyph unicode="&#x2009;" horiz-adv-x="404" />
<glyph unicode="&#x200a;" horiz-adv-x="112" />
<glyph unicode="&#x2010;" horiz-adv-x="462" d="M406 539h-351v233h351v-233z" />
<glyph unicode="&#x2011;" horiz-adv-x="462" d="M406 539h-351v233h351v-233z" />
<glyph unicode="&#x2012;" horiz-adv-x="462" d="M406 539h-351v233h351v-233z" />
<glyph unicode="&#x2013;" horiz-adv-x="1024" d="M979 539h-924v233h924v-233z" />
<glyph unicode="&#x2014;" horiz-adv-x="2048" d="M2003 539h-1948v233h1948v-233z" />
<glyph unicode="&#x2018;" horiz-adv-x="321" d="M59 1184q-29 45 -28 104q0 90 59 182q57 86 131 125l53 -104q-53 -29 -86 -96q57 -4 96.5 -44t39.5 -98q0 -57 -41 -98t-101 -41q-78 0 -123 70z" />
<glyph unicode="&#x2019;" horiz-adv-x="321" d="M297 1507q29 -45 29 -104q0 -90 -58.5 -179t-132.5 -128l-53 104q53 29 86 96q-57 4 -96 44t-39 98q0 57 41 98t100 41q78 0 123 -70z" />
<glyph unicode="&#x201a;" horiz-adv-x="321" d="M279 199q29 -45 28 -105q0 -90 -58.5 -179t-131.5 -128l-54 104q53 29 87 97q-57 4 -96.5 44t-39.5 97t41 98t101 41q78 1 123 -69z" />
<glyph unicode="&#x201c;" horiz-adv-x="655" d="M57 1184q-29 45 -28 104q0 90 59 182q57 86 131 125l53 -104q-53 -29 -86 -96q57 -4 96.5 -44t39.5 -98q0 -57 -41 -98t-101 -41q-78 0 -123 70zM385 1184q-29 45 -29 104q0 90 60 182q57 86 131 125l53 -104q-53 -29 -86 -96q57 -4 96 -44t39 -98q0 -57 -41 -98 t-100 -41q-78 0 -123 70z" />
<glyph unicode="&#x201d;" horiz-adv-x="655" d="M623 1507q29 -45 28 -104q0 -90 -58 -179t-132 -128l-53 104q53 29 86 96q-57 4 -96.5 44t-39.5 98q0 57 41 98t101 41q78 0 123 -70zM295 1507q29 -45 29 -104q0 -90 -58.5 -179t-132.5 -128l-53 104q53 29 86 96q-57 4 -96 44t-39 98q0 57 41 98t100 41q78 0 123 -70z " />
<glyph unicode="&#x201e;" horiz-adv-x="655" d="M618 199q29 -45 29 -105q0 -90 -58.5 -179t-131.5 -128l-54 104q53 29 86 97q-57 4 -96 44t-39 97t41 98t101 41q77 1 122 -69zM291 199q29 -45 28 -105q0 -90 -58 -179t-132 -128l-53 104q53 29 86 97q-57 4 -96 44t-39 97t41 98t100 41q78 1 123 -69z" />
<glyph unicode="&#x2026;" horiz-adv-x="1024" d="M981 121q0 -57 -41 -99t-98 -42t-99.5 41.5t-42.5 99.5q0 57 41 98t101 41q57 0 98 -41t41 -98zM653 121q0 -57 -41 -99t-98 -42t-99 41.5t-42 99.5q0 57 41 98t100 41q57 0 98 -41t41 -98zM326 121q0 -57 -41 -99t-99 -42q-57 0 -99 41.5t-42 99.5q0 57 41 98t100 41 q57 0 98.5 -41t41.5 -98z" />
<glyph unicode="&#x202f;" horiz-adv-x="404" />
<glyph unicode="&#x2039;" horiz-adv-x="458" d="M424 305l-389 387v166l389 389v-332l-139 -139l139 -141v-330z" />
<glyph unicode="&#x203a;" horiz-adv-x="458" d="M35 305l389 387v166l-389 389v-332l139 -139l-139 -141v-330z" />
<glyph unicode="&#x205f;" horiz-adv-x="505" />
<glyph unicode="&#x2122;" horiz-adv-x="1370" d="M1307 930h-154v416q0 39 -27.5 66.5t-66.5 27.5t-68 -29q8 -25 8 -55v-309h48v-117h-164v426q0 35 -24.5 59.5t-59.5 24.5q-37 0 -62 -29v-364h45v-117h-209v117h48v393h-48v116h164v-10q35 10 62 10q72 0 129 -47q57 47 131 47q88 0 150.5 -62t62.5 -148v-299h35v-117z M520 1331h-119v109h-51v-393h45v-117h-211v117h47v393h-51v-109h-119v225h459v-225z" />
<glyph unicode="&#xe000;" horiz-adv-x="1177" d="M0 1178h1178v-1178h-1178v1178z" />
</font>
</defs>
</svg>
